# xmcd
#
# Track frame offsets: 
#        150
#        15347
#        30074
#        48018
#        77050
#        95952
#        111133
#        130313
#        145865
#        162935
#        179041
#
# Disc length: 2717 seconds
#
# Revision: 2
# Processed by: cddbd v1.5.2PL0 Copyright (c) Steve Scherf et al.
# Submitted via: ExactAudioCopyFreeDBPlugin 1.0
#
DISCID=850a9b0b
DTITLE=Milton Wright - Friends And Buddies
DYEAR=1975
DGENRE=Soul
TTITLE0=Friends And Buddies
TTITLE1=Brothers and Sisters
TTITLE2=Get No Lovin' Tonight
TTITLE3=Po' Man
TTITLE4=Keep It Up
TTITLE5=My Ol' Lady
TTITLE6=Black Man
TTITLE7=The Silence That You Keep
TTITLE8=Nobody Can Touch You
TTITLE9=Ooh Ooh I Like It (45 Version)
TTITLE10=Ooh Ooh I Love It (12" Version)
EXTD=
EXTT0=
EXTT1=
EXTT2=
EXTT3=
EXTT4=
EXTT5=
EXTT6=
EXTT7=
EXTT8=
EXTT9=
EXTT10=
PLAYORDER=
